<?xml version="1.0" encoding="UTF-8"?>
<svg width="1200pt" height="1200pt" version="1.1" viewBox="0 0 1200 1200" xmlns="http://www.w3.org/2000/svg">
 <g>
  <path d="m818.14 708.16c-0.44531-3.5039-1.1055-7.1289-1.8945-10.871-0.46875-2.2422-1.0547-4.5469-1.6445-6.8516-0.5625-2.125-1.1758-4.2852-1.8242-6.457-1.332-4.4766-2.8555-9.0469-4.5977-13.766-0.52734-1.4023-1.0312-2.7969-1.5977-4.2109-6.8516-17.711-16.523-36.926-28.645-57.168-2.7109-315.45-110.48-560.8-247.68-560.8-70.262 0-134.39 62.473-180.57 175.91-20.762 50.988-37.008 109.98-48.336 173.98l-289.18 289.17c-40.477 40.465 23.352 169.91 142.54 289.13 119.22 119.18 248.65 182.99 289.13 142.51l363.09-363.06c2.2695-2.2695 4.1055-4.9062 5.7227-7.7266 0.32422-0.53906 0.66016-1.0547 0.9375-1.6211 1.4023-2.7617 2.543-5.7344 3.3945-8.9297 0.21484-0.80469 0.34766-1.6328 0.53906-2.4727 0.66016-3.0352 1.1523-6.2539 1.332-9.6484 0.070312-0.98438 0.070312-1.9922 0.097656-2.9883 0.046875-3.0117-0.097656-6.168-0.34766-9.4219-0.15625-1.5586-0.27734-3.0938-0.45703-4.7031zm-511.23-3.7695c-39.312 0-71.219-31.871-71.219-71.207 0-31.141 20.016-57.539 47.867-67.211-0.71875 18.18-1.0781 36.527-1.0781 55.02 0 13.512 10.945 24.457 24.457 24.457 13.5 0 24.457-10.945 24.457-24.457 0-18.227 0.37109-36.324 1.0781-54.227 26.699 10.273 45.684 36.109 45.684 66.406-0.011719 39.348-31.91 71.219-71.246 71.219zm79.215-387.63c-0.23828 0.12109-0.45703 0.23828-0.69531 0.32422-3.7695 1.8594-7.2852 4.0078-10.188 6.9102l-10.164 10.188c8.4961-32.844 18.445-63.684 29.891-91.789 37.633-92.449 86.941-145.44 135.28-145.44 87.059 0 179.7 172.96 196.29 438.71-0.035156-0.046875-0.070312-0.085938-0.097656-0.14453-2.1016-2.5938-4.3086-5.1953-6.4922-7.7891-3.4062-4.1406-6.8633-8.293-10.441-12.457-2.4375-2.832-4.9336-5.6758-7.4648-8.5312-3.7812-4.3086-7.668-8.6055-11.641-12.91-2.1953-2.3984-4.3672-4.8008-6.625-7.1875-6.3008-6.7188-12.742-13.414-19.414-20.09-13.668-13.668-27.457-26.508-41.242-38.641-0.058593-0.058594-0.12109-0.12109-0.17969-0.16797-1.043-0.92578-2.0742-1.8125-3.1328-2.6992-7.3555-6.4219-14.699-12.625-22.008-18.551-0.88672-0.74219-1.7773-1.4883-2.6641-2.207-0.023437 0-0.046875-0.011719-0.058594-0.035156-6.9102-5.543-13.789-10.934-20.629-16.055-0.3125-0.21484-0.625-0.43359-0.92578-0.67188-0.070313-0.046875-0.13281-0.085937-0.20312-0.13281-14.074-10.512-27.898-19.957-41.398-28.43-1.2617-0.81641-2.543-1.6094-3.793-2.3867-0.011719 0-0.011719 0-0.023438-0.011718-4.7031-2.8906-9.3242-5.6289-13.895-8.2578l-0.023437-0.023437c-1.7383-0.98438-3.4805-2.0391-5.207-3-0.011718 0-0.046875-0.011719-0.046875-0.023438-6.4062-3.5508-12.684-6.875-18.816-9.9102-0.48047-0.20312-0.96094-0.42188-1.4297-0.64844-0.058594-0.023437-0.10938-0.058594-0.16797-0.070312-5.2422-2.5547-10.391-4.9062-15.434-7.0312-0.011719-0.011719-0.023437-0.023438-0.058594-0.046875-1.3203-0.53906-2.6172-1.0547-3.9102-1.5703-4.4023-1.7891-8.7109-3.4219-12.926-4.8945-0.011719 0-0.046875-0.011719-0.070313-0.023437-1.8125-0.625-3.625-1.2344-5.4102-1.8125-3.8984-1.2344-7.6562-2.2695-11.352-3.1914-1.3672-0.35938-2.7852-0.76953-4.1055-1.0664 0 0-0.011719 0-0.011719-0.011719-9.0234-1.9922-17.426-3.0977-25.031-3.0977-1.2461 0-2.3633 0.17969-3.5625 0.23828-0.80469 0.058594-1.6211 0.12109-2.4258 0.17969h-0.046875c-6.7422 0.55078-12.781 2.0391-18.059 4.5l0.015625-0.003907zm403.49 421.63c-4.1523 4.1289-11.902 4.9922-17.699 4.9922-43.02 0-135.47-46.164-236.83-147.55-55.801-55.801-100.74-115.32-126.53-167.58-23.484-47.641-24.961-78-16.02-86.953 4.1289-4.1406 11.902-5.0039 17.723-5.0039 43.008 0 135.46 46.188 236.83 147.54 7.5234 7.5352 14.832 15.133 21.938 22.766 1.1641 1.2461 2.2578 2.5078 3.3945 3.7812 6.0977 6.625 12.07 13.285 17.82 19.969 0.64844 0.74219 1.2461 1.4766 1.8828 2.2305 6.2773 7.3438 12.371 14.688 18.191 22.008 0.097656 0.13281 0.21484 0.26562 0.30078 0.40625 6.2148 7.8359 12.168 15.672 17.82 23.426 15.516 21.324 28.801 42.277 39.457 62.34 1.9062 3.5625 3.9492 7.1758 5.6758 10.691 23.492 47.641 24.992 77.988 16.043 86.938z"/>
  <path d="m1199.2 816.17c-3.9375-36.086-23.41-113.79-95.09-167.81-75.539-55.738-145.08-51.07-181.52-47.102 49.945 65.102 41.605 135.18 23.555 177.84-8.4609 20.051-12.098 42.457-9.5625 65.676 7.8945 72.504 73.055 124.88 145.6 117.01 72.516-7.918 124.9-73.102 117.02-145.62z"/>
 </g>
</svg>
